# xmcd CD database file
#
# Track frame offsets:
#	150
#	20940
#	42609
#	55105
#	73410
#	92342
#	104725
#	119045
#	136668
#	147801
#	164666
#	189823
#	211719
#	231341
#	255749
#	278543
#	302015
#	329487
#
# Disc length: 4830 seconds
#
# Revision: 0
# Processed by: cddbd v1.5.2PL0 Copyright (c) Steve Scherf et al.
# Submitted via: CDex 1.51
#
DISCID=1012dc12
DTITLE=Sonchevere sexteto - Aprender el son
DYEAR=2009
DGENRE=Salsa
TTITLE0=Mi bongo
TTITLE1=Te entregare Io que me lleve
TTITLE2=Amor Cohibido
TTITLE3=Yo quiero aprender el son
TTITLE4=Pintate los labios Marial
TTITLE5=Sueno y verdad
TTITLE6=Los feos pa la cocina
TTITLE7=Pasame el trapito aqui
TTITLE8=Con la luz de la aurora
TTITLE9=Mi cafetal
TTITLE10=Juan Ramon
TTITLE11=Guantanamera
TTITLE12=Hasta siempre
TTITLE13=Chan chan
TTITLE14=Yolanda
TTITLE15=El cuarto de Tula
TTITLE16=Un monton de estrellas
TTITLE17=El carnaval
EXTD=YEAR: 2009
EXTT0=
EXTT1=
EXTT2=
EXTT3=
EXTT4=
EXTT5=
EXTT6=
EXTT7=
EXTT8=
EXTT9=
EXTT10=
EXTT11=
EXTT12=
EXTT13=
EXTT14=
EXTT15=
EXTT16=
EXTT17=
PLAYORDER=
